# xmcd
#
# Track frame offsets:
#	150
#	14166
#	28998
#	47769
#	62696
#	79662
#	94097
#	108420
#	123385
#	136638
#
# Disc length: 2035 seconds
#
# Revision: 1
# Processed by: cddbd v1.5.1PL2 Copyright (c) Steve Scherf et al.
# Submitted via: audiograbber 1.83.01
#
DISCID=8207f10a
DTITLE=Lidia Avila - A tu medida
DYEAR=2005
DGENRE=Pop
TTITLE0=A tu medida
TTITLE1=Ciega
TTITLE2=Él se marchó
TTITLE3=No me puedo perdonar
TTITLE4=Que te vaya bien
TTITLE5=Ya no podré
TTITLE6=Como vivir sin ti
TTITLE7=Cada vez
TTITLE8=Si yo pudiera
TTITLE9=Así como me ves
EXTD=
EXTT0=
EXTT1=
EXTT2=
EXTT3=
EXTT4=
EXTT5=
EXTT6=
EXTT7=
EXTT8=
EXTT9=
PLAYORDER=
